<svg xmlns="http://www.w3.org/2000/svg" viewBox="0 0 40 40" width="40" height="40">
  <defs>
    <radialGradient id="kWarm" cx="0.5" cy="0.5" r="0.5">
      <stop offset="0" stop-color="#e8dfae" stop-opacity="0.55"/>
      <stop offset="0.5" stop-color="#d4c88e" stop-opacity="0.15"/>
      <stop offset="1" stop-color="#d4c88e" stop-opacity="0"/>
    </radialGradient>
    <radialGradient id="kFly" cx="0.5" cy="0.5" r="0.5">
      <stop offset="0" stop-color="#c8ffc8" stop-opacity="0.9"/>
      <stop offset="0.4" stop-color="#5ae65a" stop-opacity="0.35"/>
      <stop offset="1" stop-color="#5ae65a" stop-opacity="0"/>
    </radialGradient>
    <linearGradient id="kStone" x1="0" y1="0" x2="0" y2="1">
      <stop offset="0" stop-color="#4d5c47"/>
      <stop offset="1" stop-color="#37452f"/>
    </linearGradient>
  </defs>
  <rect width="40" height="40" rx="8" fill="#121a11"/>

  <circle cx="20" cy="16" r="13" fill="url(#kWarm)"/>

  <!-- torii gate with hanging lantern, thickened variant -->
  <g transform="translate(4 3) scale(0.25)">
    <g fill="url(#kStone)">
      <path d="M8 24 C 33 30.5 95 30.5 120 24 L120 15.5 C 95 22 33 22 8 15.5 Z"/>
      <rect x="60.5" y="29" width="7" height="10"/>
      <rect x="17" y="39" width="94" height="7.5" rx="1.5"/>
      <rect x="30" y="27" width="10" height="79" rx="2.5"/>
      <rect x="88" y="27" width="10" height="79" rx="2.5"/>
      <rect x="61.5" y="43" width="5" height="3"/>
    </g>
    <rect x="59" y="46" width="10" height="11" rx="2.5" fill="#e0d49a"/>
    <g fill="#4ca64c" opacity="0.5">
      <ellipse cx="35" cy="106" rx="9" ry="3.5"/>
      <ellipse cx="93" cy="106" rx="9" ry="3.5"/>
      <ellipse cx="64" cy="108" rx="22" ry="3.5"/>
    </g>
  </g>

  <circle cx="32" cy="8" r="4.5" fill="url(#kFly)"/>
  <circle cx="32" cy="8" r="1.4" fill="#d8ffd0"/>
  <circle cx="33.5" cy="18" r="3" fill="url(#kFly)" opacity="0.8"/>
  <circle cx="33.5" cy="18" r="1" fill="#c8f7be"/>
</svg>
